PathFileType	4	(X/Y/Z)	/Users/itak/Documents/Research/Walk-IL/dataset/trc/00453_00167.trc
DataRate	CameraRate	NumFrames	NumMarkers	Units	OrigDataRate	OrigDataStartFrame	OrigNumFrames
100.000000	100.000000	4	53	mm	100.000000	268	536
Frame#	Time	RPSI			LPSI			L3			STRN			T10			C7			CLAV			RBAK			LBAK			LSHO			LUPA			LAEL			LAOL			LWTS			LWPS			LFRA			LIFD			LHPS			LHTS			RSHO			RUPA			RAEL			RAOL			RWTS			RWPS			RFRA			RIFD			RHTS			RHPS			RBHD			LFHD			RFHD			LBHD			LHIP			RHIP			RASI			LASI			LKNE			LTHI			LANK			LTIP			LTOE			LMT1			LMT5			LHEE			RKNE			RTHI			RANK			RTIP			RTOE			RMT1			RMT5			RHEE			
		X1	Y1	Z1	X2	Y2	Z2	X3	Y3	Z3	X4	Y4	Z4	X5	Y5	Z5	X6	Y6	Z6	X7	Y7	Z7	X8	Y8	Z8	X9	Y9	Z9	X10	Y10	Z10	X11	Y11	Z11	X12	Y12	Z12	X13	Y13	Z13	X14	Y14	Z14	X15	Y15	Z15	X16	Y16	Z16	X17	Y17	Z17	X18	Y18	Z18	X19	Y19	Z19	X20	Y20	Z20	X21	Y21	Z21	X22	Y22	Z22	X23	Y23	Z23	X24	Y24	Z24	X25	Y25	Z25	X26	Y26	Z26	X27	Y27	Z27	X28	Y28	Z28	X29	Y29	Z29	X30	Y30	Z30	X31	Y31	Z31	X32	Y32	Z32	X33	Y33	Z33	X34	Y34	Z34	X35	Y35	Z35	X36	Y36	Z36	X37	Y37	Z37	X38	Y38	Z38	X39	Y39	Z39	X40	Y40	Z40	X41	Y41	Z41	X42	Y42	Z42	X43	Y43	Z43	X44	Y44	Z44	X45	Y45	Z45	X46	Y46	Z46	X47	Y47	Z47	X48	Y48	Z48	X49	Y49	Z49	X50	Y50	Z50	X51	Y51	Z51	X52	Y52	Z52	X53	Y53	Z53	

269	2.68	-612.9063720703125	888.5654296875	147.8879089355469	-549.0803833007812	905.9375	20.06313323974609	-557.5548095703125	1005.527648925781	102.7601470947266	-278.8817443847656	1163.446899414062	251.9331970214844	-541.7481689453125	1131.171264648438	100.9925003051758	-448.3130187988281	1390.172241210938	164.1179351806641	-292.8729248046875	1282.043823242188	237.8676605224609	-561.3847045898438	1282.546264648438	202.9308776855469	-433.6994018554688	1342.893310546875	55.61293029785156	-302.2657165527344	1349.355712890625	39.27101898193359	-259.9423522949219	1232.333984375	-50.79557800292969	-188.0158081054688	1044.074584960938	-81.66522216796875	-273.0262756347656	985.38671875	-57.91687393188477	-53.22724533081055	972.5533447265625	50.23763656616211	-45.15510559082031	911.0991821289062	8.882646560668945	-122.4996337890625	992.55078125	-48.89463043212891	59.00807571411133	893.8594360351562	138.4764404296875	14.58368873596191	876.4298095703125	52.14316558837891	19.40778160095215	940.5402221679688	84.40290069580078	-472.2008972167969	1354.418701171875	339.8660278320312	-541.530029296875	1304.880981445312	385.6945495605469	-678.709716796875	1052.766723632812	399.7069702148438	-700.44677734375	1053.670654296875	334.8788757324219	-650.8118286132812	830.0828247070312	390.4099426269531	-738.7672729492188	845.2095947265625	400.0974731445312	-703.1658325195312	998.2545166015625	401.645751953125	-708.5006713867188	683.0637817382812	395.5132141113281	-679.6083984375	735.3628540039062	410.0815734863281	-753.3650512695312	758.4901123046875	408.6480712890625	-434.6437072753906	1569.7822265625	257.7813720703125	-243.2317352294922	1601.188842773438	187.5872650146484	-309.0976257324219	1607.840454101562	300.2008666992188	-359.4676818847656	1562.628784179688	96.51651000976562	-370.955322265625	803.957275390625	-23.96872329711914	-556.5693359375	796.1321411132812	332.9591674804688	-445.2534790039062	844.5086669921875	313.1061706542969	-320.9508972167969	840.6100463867188	88.14548492431641	-355.9847106933594	377.0583801269531	29.74188423156738	-321.1008605957031	534.4437866210938	16.2578239440918	-609.7525024414062	49.50707244873047	-98.37997436523438	-433.0155334472656	242.4842681884766	-19.08603286743164	-456.8591918945312	41.34511566162109	83.32125091552734	-531.0201416015625	50.88550567626953	67.39115142822266	-475.2810363769531	40.09443283081055	-34.97117614746094	-682.4740600585938	67.64614105224609	-83.77786254882812	-354.2140502929688	488.0548706054688	439.122802734375	-472.3096618652344	700.7051391601562	394.5856628417969	-651.9353637695312	274.3989562988281	218.2149200439453	-443.790771484375	399.99462890625	383.5294189453125	-514.0746459960938	123.5107269287109	272.7687377929688	-525.0040893554688	163.1107025146484	214.1049194335938	-601.6751098632812	178.8202667236328	287.021484375	-657.8013305664062	320.0625	153.0010070800781	
270	2.69	-592.845947265625	892.667724609375	159.6115112304688	-528.353759765625	909.7042236328125	32.4547004699707	-536.4639282226562	1008.850280761719	113.6195983886719	-261.3154602050781	1168.615600585938	265.3656921386719	-521.16162109375	1134.433715820312	110.8400192260742	-430.3982849121094	1394.06689453125	174.3586730957031	-275.7320251464844	1287.054565429688	250.8460235595703	-543.0443725585938	1286.231567382812	211.8010559082031	-414.1530456542969	1346.816650390625	65.91706085205078	-282.5806579589844	1354.23095703125	51.98395156860352	-237.7967071533203	1236.832153320312	-36.16881561279297	-163.6801300048828	1050.363037109375	-63.2340202331543	-246.6579437255859	988.9991455078125	-37.26714324951172	-26.11062622070312	990.9082641601562	71.92249298095703	-14.83634185791016	928.1456909179688	33.39290237426758	-96.06558227539062	1003.304992675781	-28.21364784240723	89.00299072265625	921.893310546875	164.5454406738281	46.10923385620117	898.215576171875	78.72103881835938	47.7569694519043	963.8483276367188	107.9982757568359	-456.2555541992188	1358.886962890625	349.7488098144531	-526.4913940429688	1310.617431640625	394.6595153808594	-668.5155639648438	1061.29541015625	405.4944458007812	-688.2730102539062	1063.691284179688	339.9853210449219	-649.7439575195312	837.2717895507812	394.9157409667969	-737.5083618164062	855.7879028320312	402.3592224121094	-695.1110229492188	1007.809387207031	406.3394470214844	-713.691650390625	692.7080688476562	396.2623901367188	-683.0376586914062	743.453857421875	412.5157470703125	-755.9120483398438	769.554931640625	409.0326538085938	-416.8592529296875	1574.470092773438	269.0997924804688	-225.2820587158203	1605.001342773438	198.8939819335938	-291.1402587890625	1612.080078125	311.4635009765625	-341.6706848144531	1566.783203125	107.8986129760742	-351.7673034667969	807.2108154296875	-12.48174858093262	-535.5989379882812	802.318359375	345.9458923339844	-424.6419982910156	850.2208862304688	324.7886047363281	-300.3578796386719	843.2135009765625	99.81386566162109	-349.75537109375	379.8879089355469	33.59220123291016	-310.1875610351562	536.5435791015625	23.7123966217041	-607.1061401367188	55.1356315612793	-98.52020263671875	-427.9362487792969	246.7513580322266	-17.10661888122559	-457.5408630371094	41.41042327880859	83.05466461181641	-530.3092041015625	51.23415756225586	67.42623138427734	-475.0776062011719	39.63907623291016	-34.5959587097168	-678.5979614257812	76.59160614013672	-84.11554718017578	-324.7090454101562	498.4498901367188	455.7378845214844	-449.2770080566406	709.333740234375	408.5504150390625	-604.7196044921875	253.346923828125	244.3455810546875	-407.7348022460938	401.0625915527344	403.8612365722656	-455.2236938476562	117.7605209350586	304.8660888671875	-468.9989318847656	153.4548492431641	244.7878265380859	-547.0255126953125	165.8772735595703	316.9803771972656	-613.8302612304688	295.4840087890625	177.2420806884766	
271	2.7	-572.6519165039062	897.9983520507812	171.3782196044922	-506.9550476074219	914.4039916992188	45.25321960449219	-514.852294921875	1013.023010253906	124.792610168457	-243.6253051757812	1174.847900390625	279.1142578125	-500.212646484375	1138.534912109375	120.9994125366211	-412.5123596191406	1398.805541992188	184.9313507080078	-258.5780639648438	1293.098510742188	264.0711669921875	-524.53662109375	1290.72705078125	221.030029296875	-394.6396789550781	1351.63525390625	76.60810089111328	-263.0320739746094	1360.192016601562	64.98105621337891	-215.9298706054688	1242.645751953125	-21.51517868041992	-140.3466186523438	1057.889770507812	-45.05861663818359	-221.4817047119141	994.19921875	-17.17780685424805	-1.222977161407471	1010.03759765625	93.18885040283203	13.10101890563965	946.165771484375	57.65355682373047	-71.17304992675781	1015.19921875	-7.791694641113281	115.9694290161133	950.7597045898438	190.09130859375	74.82535552978516	920.9503173828125	105.0334930419922	73.48488616943359	987.8853149414062	131.0923614501953	-440.1439514160156	1364.193725585938	359.9111022949219	-511.1479187011719	1317.217041015625	404.0020141601562	-657.2686157226562	1070.41552734375	411.7717590332031	-675.3953857421875	1074.293212890625	345.8330688476562	-646.6180419921875	845.5374145507812	399.0645141601562	-733.9863891601562	866.9088134765625	404.9388427734375	-685.6593017578125	1017.959655761719	411.5064392089844	-715.693603515625	703.3260498046875	396.1270446777344	-683.6036987304688	752.5575561523438	414.1584167480469	-755.5579223632812	781.1535034179688	409.2584533691406	-399.1529235839844	1580.038330078125	280.8701477050781	-207.4041900634766	1609.694091796875	210.6298675537109	-273.2307434082031	1617.1494140625	323.1672058105469	-323.9785766601562	1571.888549804688	119.7054748535156	-331.9643249511719	811.3948974609375	-0.4951256215572357	-514.4329833984375	809.4000244140625	359.2056884765625	-403.8307800292969	856.65869140625	336.8335266113281	-279.2925415039062	846.7048950195312	112.098014831543	-342.6691284179688	384.0926513671875	37.63809204101562	-298.5731506347656	539.8724975585938	31.42001914978027	-603.5977783203125	61.84209442138672	-98.29356384277344	-421.8206481933594	252.3814086914062	-14.91350746154785	-458.2326049804688	41.29711532592773	82.77009582519531	-529.2531127929688	51.64595413208008	67.59091949462891	-474.669677734375	39.14118957519531	-34.09334945678711	-673.3330078125	87.05617523193359	-83.84098815917969	-296.9586181640625	508.1773986816406	471.1322021484375	-426.4696960449219	718.2706298828125	422.3747253417969	-555.9826049804688	231.4711456298828	271.421875	-372.5576477050781	401.485107421875	423.7028198242188	-395.7930603027344	112.8748397827148	337.7000427246094	-412.1200866699219	144.1992950439453	276.295166015625	-491.3613891601562	153.0909118652344	347.7776794433594	-568.1366577148438	269.6214599609375	202.4526672363281	
272	2.71	-552.4111328125	904.4583129882812	183.1122589111328	-484.919921875	919.9686279296875	58.41872024536133	-492.79736328125	1017.907592773438	136.2772064208984	-225.7887420654297	1181.949340820312	293.1287231445312	-478.9656982421875	1143.326293945312	131.5037689208984	-394.6427307128906	1404.215087890625	195.8168334960938	-241.3924713134766	1299.978759765625	277.4894104003906	-505.8666687011719	1295.8759765625	230.6307525634766	-375.1819458007812	1357.156372070312	87.66332244873047	-243.6477355957031	1367.001708984375	78.19566345214844	-194.3780822753906	1249.524169921875	-6.92046070098877	-117.8467559814453	1066.42529296875	-27.28802680969238	-197.3545837402344	1000.663024902344	2.012551069259644	21.51670074462891	1029.484497070312	114.0167770385742	38.80117797851562	964.756103515625	81.53585052490234	-47.65819931030273	1027.952880859375	12.252685546875	139.8262939453125	979.7669677734375	215.1656799316406	100.8355407714844	944.1350708007812	131.0015106201172	96.62502288818359	1012.117492675781	153.7480773925781	-423.8475952148438	1370.165649414062	370.3499450683594	-495.4884338378906	1324.47705078125	413.7210083007812	-644.9488525390625	1079.84716796875	418.5443420410156	-661.759521484375	1085.177734375	352.3868713378906	-641.3514404296875	854.4996948242188	403.0552978515625	-728.2091064453125	878.1986083984375	407.9827270507812	-674.80859375	1028.394653320312	417.1867980957031	-714.4411010742188	714.4517211914062	395.494384765625	-681.23779296875	762.255126953125	415.3245544433594	-752.3071899414062	792.8735961914062	409.591796875	-381.5318298339844	1586.28515625	293.0643920898438	-189.6080780029297	1615.121704101562	222.7821197509766	-255.3871612548828	1622.866577148438	335.301025390625	-306.3867492675781	1577.791381835938	131.9092407226562	-311.5794067382812	816.4113159179688	11.95860576629639	-493.1125793457031	817.1004028320312	372.6389465332031	-382.8548583984375	863.5927124023438	349.2265014648438	-257.801513671875	850.99072265625	124.9609069824219	-334.4486999511719	389.5046691894531	42.02009201049805	-286.0790405273438	544.3090209960938	39.44309616088867	-599.0814819335938	69.62590026855469	-97.58783721923828	-414.446533203125	259.2209167480469	-12.36406898498535	-458.8481140136719	40.99211120605469	82.48495483398438	-527.7661743164062	52.16968536376953	67.92546081542969	-473.9708862304688	38.67660140991211	-33.4471321105957	-666.4932861328125	98.94586944580078	-82.78754425048828	-271.0471496582031	516.8374633789062	485.3103637695312	-403.949951171875	727.1846923828125	436.0090942382812	-505.7897033691406	209.3472900390625	299.416015625	-338.3680114746094	401.1812133789062	443.0317687988281	-336.2256164550781	109.1474227905273	371.0904541015625	-354.7265319824219	135.7318725585938	308.4826354980469	-434.9756774902344	140.8698883056641	379.2835388183594	-520.6981811523438	243.1457977294922	228.6623382568359	
